<svg version="1.1" viewBox="0.0 0.0 106.37795275590551 100.0" fill="none" stroke="none" stroke-linecap="square" stroke-miterlimit="10" xmlns:xlink="http://www.w3.org/1999/xlink" xmlns="http://www.w3.org/2000/svg"><clipPath id="p.0"><path d="m0 0l106.37795 0l0 100.0l-106.37795 0l0 -100.0z" clip-rule="nonzero"/></clipPath><g clip-path="url(#p.0)"><path fill="#000000" fill-opacity="0.0" d="m0 0l106.37795 0l0 100.0l-106.37795 0z" fill-rule="evenodd"/><path fill="#000000" fill-opacity="0.0" d="m-0.9055118 2.7401574l107.27559 0l0 83.37008l-107.27559 0z" fill-rule="evenodd"/><path fill="#0000ff" d="m39.17643 43.45578l-7.203127 1.3125q-0.375 -2.171875 -1.671875 -3.265625q-1.28125 -1.09375 -3.328125 -1.09375q-2.734375 0 -4.375 1.890625q-1.625 1.890625 -1.625 6.3125q0 4.921875 1.65625 6.953125q1.65625 2.03125 4.4375 2.03125q2.09375 0 3.421875 -1.171875q1.328125 -1.1875 1.8750019 -4.078125l7.171875 1.21875q-1.109375 4.953125 -4.296875 7.484375q-3.171875 2.515625 -8.500002 2.515625q-6.078125 0 -9.6875 -3.828125q-3.59375 -3.828125 -3.59375 -10.59375q0 -6.859375 3.609375 -10.671875q3.625 -3.8125 9.796875 -3.8125q5.046875 0 8.031252 2.171875q2.984375 2.171875 4.28125 6.625zm18.236694 -8.171875l0 5.828125l-5.0 0l0 11.15625q0 3.375 0.140625 3.9375q0.140625 0.5625 0.640625 0.9375q0.515625 0.359375 1.25 0.359375q1.015625 0 2.9375 -0.703125l0.625 5.671875q-2.546875 1.09375 -5.78125 1.09375q-1.984375 0 -3.578125 -0.65625q-1.578125 -0.671875 -2.328125 -1.71875q-0.734375 -1.0625 -1.015625 -2.859375q-0.234375 -1.28125 -0.234375 -5.15625l0 -12.0625l-3.359375 0l0 -5.828125l3.359375 0l0 -5.484375l7.34375 -4.28125l0 9.765625l5.0 0zm12.071182 27.65625l-7.3125 0l0 -27.65625l6.796875 0l0 3.9375q1.75 -2.796875 3.140625 -3.671875q1.390625 -0.890625 3.15625 -0.890625q2.5 0 4.828125 1.390625l-2.265625 6.375q-1.859375 -1.203125 -3.4375 -1.203125q-1.546875 0 -2.609375 0.84375q-1.0625 0.84375 -1.6875 3.0625q-0.609375 2.21875 -0.609375 9.265625l0 8.546875zm13.753189 0l0 -38.171875l7.3125 0l0 38.171875l-7.3125 0z" fill-rule="nonzero"/></g></svg>