<svg version="1.1" viewBox="0.0 0.0 106.37795275590551 100.0" fill="none" stroke="none" stroke-linecap="square" stroke-miterlimit="10" xmlns:xlink="http://www.w3.org/1999/xlink" xmlns="http://www.w3.org/2000/svg"><clipPath id="p.0"><path d="m0 0l106.37795 0l0 100.0l-106.37795 0l0 -100.0z" clip-rule="nonzero"/></clipPath><g clip-path="url(#p.0)"><path fill="#000000" fill-opacity="0.0" d="m0 0l106.37795 0l0 100.0l-106.37795 0z" fill-rule="evenodd"/><path fill="#000000" fill-opacity="0.0" d="m-0.9055118 6.0262465l107.27559 0l0 80.09449l-107.27559 0z" fill-rule="evenodd"/><path fill="#000000" d="m11.67658 53.804367l7.5 -0.734375q0.6875 3.78125 2.75 5.5625q2.078125 1.765625 5.59375 1.765625q3.71875 0 5.609377 -1.578125q1.890625 -1.578125 1.890625 -3.6875q0 -1.359375 -0.796875 -2.296875q-0.796875 -0.953125 -2.781252 -1.65625q-1.34375 -0.46875 -6.171875 -1.671875q-6.1875 -1.53125 -8.6875 -3.78125q-3.515625 -3.140625 -3.515625 -7.671875q0 -2.921875 1.640625 -5.453125q1.65625 -2.546873 4.765625 -3.874998q3.125 -1.328125 7.515625 -1.328125q7.187502 0 10.812502 3.15625q3.640625 3.156248 3.828125 8.406248l-7.703125 0.34375q-0.5 -2.9375 -2.125002 -4.21875q-1.625 -1.296875 -4.890625 -1.296875q-3.359375 0 -5.25 1.375q-1.234375 0.890625 -1.234375 2.375q0 1.34375 1.15625 2.3125q1.453125 1.21875 7.078125 2.546875q5.625002 1.328125 8.312502 2.75q2.703125 1.421875 4.21875 3.890625q1.53125 2.453125 1.53125 6.0625q0 3.28125 -1.828125 6.15625q-1.828125 2.859375 -5.15625 4.25q-3.328125 1.390625 -8.296877 1.390625q-7.25 0 -11.125 -3.34375q-3.875 -3.34375 -4.640625 -9.75zm37.522568 12.421875l0 -38.171875l12.375 0q7.03125 0 9.171875 0.578125q3.265625 0.859375 5.484375 3.734373q2.21875 2.875 2.21875 7.421875q0 3.515625 -1.28125 5.921875q-1.28125 2.390625 -3.25 3.765625q-1.953125 1.359375 -3.984375 1.796875q-2.765625 0.546875 -8.0 0.546875l-5.015625 0l0 14.40625l-7.71875 0zm7.71875 -31.71875l0 10.828125l4.21875 0q4.546875 0 6.078125 -0.59375q1.546875 -0.59375 2.421875 -1.875q0.875 -1.28125 0.875 -2.96875q0 -2.078125 -1.234375 -3.421875q-1.21875 -1.359375 -3.09375 -1.703125q-1.375 -0.265625 -5.546875 -0.265625l-3.71875 0zm27.616318 31.71875l0 -38.171875l7.71875 0l0 38.171875l-7.71875 0z" fill-rule="nonzero"/></g></svg>