<?xml version="1.0" encoding="utf-8"?>

<!DOCTYPE svg PUBLIC "-//W3C//DTD SVG 1.1//EN" "http://www.w3.org/Graphics/SVG/1.1/DTD/svg11.dtd">
<!-- Uploaded to: SVG Repo, www.svgrepo.com, Generator: SVG Repo Mixer Tools -->
<svg version="1.1" id="STATISTICS" xmlns="http://www.w3.org/2000/svg" xmlns:xlink="http://www.w3.org/1999/xlink" 
	 width="800px" height="800px" viewBox="0 0 1800 1800" enable-background="new 0 0 1800 1800" xml:space="preserve">
<g>
	<g>
		<g>
			<path fill="#333333" d="M152.728,528.008c-63.267,0-114.738-51.469-114.738-114.733c0-63.265,51.472-114.734,114.738-114.734
				c63.262,0,114.729,51.469,114.729,114.734C267.457,476.539,215.99,528.008,152.728,528.008z M152.728,360.752
				c-28.962,0-52.526,23.562-52.526,52.522s23.563,52.521,52.526,52.521c28.958,0,52.517-23.562,52.517-52.521
				S181.686,360.752,152.728,360.752z"/>
		</g>
		<g>
			<path fill="#333333" d="M1124.017,703.674c-63.267,0-114.738-51.465-114.738-114.725c0-63.267,51.472-114.738,114.738-114.738
				c63.262,0,114.729,51.472,114.729,114.738C1238.745,652.209,1187.278,703.674,1124.017,703.674z M1124.017,536.423
				c-28.963,0-52.526,23.563-52.526,52.526c0,28.956,23.563,52.513,52.526,52.513c28.957,0,52.517-23.558,52.517-52.513
				C1176.533,559.986,1152.974,536.423,1124.017,536.423z"/>
		</g>
		<g>
			<path fill="#333333" d="M638.373,391.099c-103.739,0-188.138-84.396-188.138-188.133S534.634,14.833,638.373,14.833
				c103.733,0,188.125,84.396,188.125,188.133S742.106,391.099,638.373,391.099z M638.373,77.045
				c-69.435,0-125.926,56.488-125.926,125.921c0,69.433,56.491,125.921,125.926,125.921c69.429,0,125.913-56.488,125.913-125.921
				C764.286,133.533,707.802,77.045,638.373,77.045z"/>
		</g>
		<g>
			<path fill="#333333" d="M1609.674,391.099c-103.737,0-188.137-84.396-188.137-188.133s84.399-188.133,188.137-188.133
				c103.733,0,188.129,84.396,188.129,188.133S1713.407,391.099,1609.674,391.099z M1609.674,77.045
				c-69.437,0-125.925,56.488-125.925,125.921c0,69.433,56.488,125.921,125.925,125.921c69.429,0,125.917-56.488,125.917-125.921
				C1735.591,133.533,1679.103,77.045,1609.674,77.045z"/>
		</g>
		<g>
			
				<rect x="332.296" y="178.864" transform="matrix(0.4637 0.886 -0.886 0.4637 480.4105 -149.1437)" fill="#333333" width="62.214" height="286.801"/>
		</g>
		<g>
			
				<rect x="721.561" y="398.765" transform="matrix(0.767 0.6417 -0.6417 0.767 488.2679 -484.7798)" fill="#333333" width="380.063" height="62.211"/>
		</g>
		<g>
			<polygon fill="#333333" points="1216.137,584.88 1176.993,536.524 1473.117,296.842 1512.26,345.197 			"/>
		</g>
	</g>
	<g>
		<path fill="#333333" d="M223.333,1785.167H82.119c-44.068,0-79.922-36.348-79.922-81.023V761.958
			c0-44.678,35.854-81.024,79.922-81.024h141.214c44.068,0,79.921,36.346,79.921,81.024v942.185
			C303.254,1748.819,267.401,1785.167,223.333,1785.167z M82.119,743.146c-9.767,0-17.71,8.438-17.71,18.812v942.185
			c0,10.371,7.943,18.812,17.71,18.812h141.214c9.766,0,17.709-8.44,17.709-18.812V761.958c0-10.374-7.944-18.812-17.709-18.812
			H82.119z"/>
	</g>
	<g>
		<path fill="#333333" d="M708.974,1785.167H567.755c-44.066,0-79.917-38.839-79.917-86.578V651.512
			c0-47.74,35.852-86.579,79.917-86.579h141.218c44.066,0,79.917,38.839,79.917,86.579v1047.077
			C788.891,1746.328,753.04,1785.167,708.974,1785.167z M567.755,627.146c-9.597,0-17.706,11.159-17.706,24.367v1047.077
			c0,13.209,8.108,24.366,17.706,24.366h141.218c9.597,0,17.705-11.157,17.705-24.366V651.512c0-13.208-8.108-24.367-17.705-24.367
			H567.755z"/>
	</g>
	<g>
		<path fill="#333333" d="M1194.621,1785.167h-141.21c-44.072,0-79.926-31.604-79.926-70.452V972.037
			c0-38.848,35.854-70.453,79.926-70.453h141.21c44.072,0,79.926,31.605,79.926,70.453v742.678
			C1274.547,1753.563,1238.693,1785.167,1194.621,1785.167z M1053.411,963.796c-11.43,0-17.714,6.188-17.714,8.241v742.678
			c0,2.053,6.284,8.24,17.714,8.24h141.21c11.431,0,17.714-6.188,17.714-8.24V972.037c0-2.053-6.283-8.241-17.714-8.241H1053.411z"
			/>
	</g>
	<g>
		<path fill="#333333" d="M1680.271,1785.167h-141.219c-44.067,0-79.917-38.839-79.917-86.578V651.512
			c0-47.74,35.85-86.579,79.917-86.579h141.219c44.072,0,79.926,38.839,79.926,86.579v1047.077
			C1760.196,1746.328,1724.343,1785.167,1680.271,1785.167z M1539.052,627.146c-9.599,0-17.705,11.159-17.705,24.367v1047.077
			c0,13.209,8.106,24.366,17.705,24.366h141.219c9.604,0,17.714-11.157,17.714-24.366V651.512c0-13.208-8.11-24.367-17.714-24.367
			H1539.052z"/>
	</g>
</g>
</svg>