<?xml version="1.0" encoding="iso-8859-1"?>
<!-- Uploaded to: SVG Repo, www.svgrepo.com, Generator: SVG Repo Mixer Tools -->
<svg fill="#000000" height="800px" width="800px" version="1.1" id="Layer_1" xmlns="http://www.w3.org/2000/svg" xmlns:xlink="http://www.w3.org/1999/xlink" 
	 viewBox="0 0 297 297" xml:space="preserve">
<g>
	<g>
		<g>
			<path d="M174.067,152.583l-11.649-11.648c1.271-2.615,2.384-5.301,3.335-8.05h16.473c5.413,0,9.803-4.389,9.803-9.803V94.345
				c0-5.413-4.389-9.803-9.803-9.803h-16.474c-0.951-2.748-2.064-5.434-3.334-8.049l11.649-11.649
				c3.828-3.828,3.828-10.035,0-13.863l-20.32-20.32c-3.829-3.827-10.034-3.827-13.863,0L128.235,42.31
				c-2.615-1.27-5.3-2.384-8.049-3.334V22.502c0-5.413-4.389-9.803-9.803-9.803H81.646c-5.413,0-9.803,4.389-9.803,9.803v16.474
				c-2.748,0.951-5.434,2.063-8.049,3.334L52.146,30.661c-1.838-1.838-4.332-2.871-6.932-2.871c-2.6,0-5.093,1.033-6.932,2.871
				l-20.321,20.32c-1.838,1.838-2.871,4.332-2.871,6.932c0,2.6,1.033,5.093,2.871,6.932L29.61,76.494
				c-1.27,2.614-2.384,5.3-3.334,8.049H9.803C4.389,84.543,0,88.932,0,94.345v28.738c0,5.413,4.389,9.803,9.803,9.803h16.473
				c0.952,2.748,2.064,5.434,3.335,8.05l-11.649,11.648c-3.828,3.828-3.828,10.035,0,13.863l20.32,20.32
				c3.829,3.826,10.034,3.828,13.863,0l11.649-11.649c2.614,1.271,5.301,2.385,8.049,3.335v16.474c0,5.413,4.389,9.803,9.803,9.803
				h28.738c5.413,0,9.803-4.389,9.803-9.803v-16.474c2.747-0.951,5.434-2.064,8.049-3.335l11.649,11.649
				c3.829,3.827,10.034,3.827,13.863,0l20.32-20.32C177.896,162.618,177.896,156.411,174.067,152.583z M148.828,120.89
				c-1.35,5.879-3.658,11.45-6.86,16.558c-2.427,3.871-1.856,8.907,1.375,12.137l9.93,9.93l-6.457,6.458l-9.931-9.931
				c-3.232-3.231-8.266-3.799-12.137-1.375c-5.11,3.203-10.68,5.511-16.556,6.859c-4.454,1.022-7.61,4.986-7.61,9.555v14.043H91.45
				v-14.043c0-4.569-3.156-8.532-7.61-9.555c-5.876-1.348-11.446-3.656-16.556-6.859c-3.868-2.423-8.905-1.857-12.137,1.375
				l-9.931,9.931l-6.457-6.458l9.93-9.93c3.231-3.231,3.801-8.266,1.375-12.137c-3.202-5.108-5.51-10.679-6.86-16.558
				c-1.022-4.453-4.985-7.609-9.554-7.609H19.605v-9.132h14.042c4.568,0,8.531-3.156,9.554-7.608
				c1.351-5.88,3.658-11.45,6.86-16.557c2.428-3.871,1.857-8.907-1.374-12.138l-9.931-9.931l6.458-6.457l9.93,9.931
				c3.231,3.232,8.268,3.799,12.138,1.374c5.108-3.202,10.678-5.509,16.555-6.858c4.454-1.022,7.61-4.986,7.61-9.555V32.305h9.132
				v14.043c0,4.569,3.156,8.532,7.61,9.555c5.878,1.349,11.447,3.656,16.555,6.858c3.871,2.427,8.908,1.859,12.138-1.374
				l9.931-9.931l6.457,6.457l-9.931,9.931c-3.231,3.232-3.801,8.267-1.374,12.138c3.202,5.107,5.509,10.678,6.86,16.557
				c1.022,4.452,4.986,7.608,9.554,7.608h14.042v9.132h-14.042C153.812,113.28,149.85,116.436,148.828,120.89z"/>
			<path d="M96.014,71.045c-20.771,0-37.669,16.898-37.669,37.669s16.898,37.669,37.669,37.669s37.669-16.898,37.669-37.669
				S116.786,71.045,96.014,71.045z M96.014,126.778c-9.961,0-18.064-8.103-18.064-18.064S86.054,90.65,96.014,90.65
				c9.96,0,18.064,8.103,18.064,18.064S105.975,126.778,96.014,126.778z"/>
			<path d="M290.579,221.087c4.259-0.786,7.075-4.875,6.289-9.134l-3.699-20.053c-0.377-2.046-1.552-3.857-3.264-5.036
				c-1.713-1.179-3.826-1.63-5.87-1.253l-10.88,2.006c-0.843-1.448-1.756-2.855-2.733-4.217l6.273-9.111
				c1.179-1.714,1.63-3.825,1.253-5.87c-0.377-2.046-1.552-3.857-3.265-5.036l-16.796-11.564c-3.564-2.455-8.449-1.557-10.905,2.011
				l-6.274,9.112c-1.621-0.428-3.26-0.777-4.914-1.048l-2.007-10.879c-0.786-4.259-4.88-7.078-9.134-6.289l-20.053,3.699
				c-2.046,0.377-3.857,1.552-5.036,3.264c-1.179,1.714-1.63,3.825-1.253,5.87l2.007,10.88c-1.449,0.844-2.856,1.756-4.218,2.733
				l-9.111-6.273c-1.714-1.179-3.825-1.628-5.87-1.253c-2.046,0.377-3.857,1.552-5.036,3.265l-11.564,16.796
				c-1.18,1.713-1.63,3.824-1.253,5.869c0.377,2.046,1.552,3.858,3.265,5.037l9.111,6.272c-0.428,1.622-0.777,3.26-1.048,4.915
				l-10.88,2.007c-2.046,0.377-3.857,1.552-5.036,3.264c-1.18,1.714-1.63,3.825-1.253,5.87l3.7,20.053
				c0.786,4.259,4.874,7.079,9.134,6.289l10.88-2.007c0.843,1.448,1.756,2.856,2.733,4.218l-6.273,9.11
				c-1.179,1.714-1.63,3.824-1.253,5.87c0.377,2.046,1.552,3.857,3.265,5.036l16.796,11.564c3.564,2.455,8.45,1.556,10.905-2.011
				l6.273-9.111c1.621,0.427,3.26,0.776,4.915,1.048l2.007,10.879c0.697,3.778,3.994,6.421,7.703,6.421
				c0.472,0,0.951-0.042,1.431-0.131l20.053-3.699c2.046-0.377,3.857-1.552,5.036-3.264c1.179-1.714,1.63-3.825,1.253-5.87
				l-2.007-10.88c1.449-0.844,2.856-1.756,4.218-2.733l9.11,6.273c1.714,1.18,3.823,1.631,5.87,1.253
				c2.046-0.377,3.857-1.552,5.036-3.265l11.564-16.796c2.456-3.567,1.556-8.449-2.011-10.905l-9.111-6.274
				c0.428-1.621,0.777-3.26,1.048-4.914L290.579,221.087z M271.094,208.734c-3.596,0.663-6.256,3.723-6.412,7.375
				c-0.18,4.175-1.052,8.261-2.592,12.147c-1.347,3.398-0.168,7.276,2.843,9.349l7.477,5.149l-2.67,3.878l-7.476-5.148
				c-3.013-2.074-7.056-1.791-9.748,0.68c-3.081,2.825-6.588,5.098-10.424,6.756c-3.356,1.45-5.265,5.027-4.602,8.621l1.647,8.93
				l-4.629,0.854l-1.647-8.929c-0.663-3.595-3.722-6.255-7.374-6.412c-4.178-0.181-8.265-1.053-12.15-2.592
				c-0.942-0.373-1.919-0.552-2.886-0.552c-2.521,0-4.964,1.22-6.462,3.395l-5.148,7.477l-3.878-2.67l5.148-7.476
				c2.073-3.011,1.791-7.054-0.68-9.748c-2.825-3.081-5.098-6.588-6.757-10.426c-1.451-3.355-5.036-5.265-8.621-4.6l-8.929,1.647
				l-0.855-4.629l8.93-1.647c3.596-0.663,6.256-3.723,6.412-7.375c0.18-4.175,1.052-8.261,2.592-12.149
				c1.347-3.398,0.167-7.275-2.844-9.349l-7.477-5.147l2.67-3.878l7.477,5.148c3.013,2.075,7.054,1.791,9.748-0.68
				c3.081-2.825,6.588-5.098,10.426-6.757c3.354-1.451,5.263-5.027,4.6-8.621l-1.647-8.929l4.629-0.854l1.647,8.929
				c0.663,3.596,3.723,6.256,7.375,6.412c4.175,0.18,8.261,1.052,12.147,2.592c3.401,1.348,7.277,0.167,9.349-2.843l5.149-7.478
				l3.878,2.67l-5.148,7.477c-2.073,3.012-1.791,7.055,0.68,9.749c2.825,3.08,5.098,6.586,6.756,10.423
				c1.449,3.355,5.03,5.266,8.621,4.602l8.93-1.647l0.854,4.629L271.094,208.734z"/>
			<path d="M242.807,191.701c-6.075-4.182-13.418-5.748-20.671-4.411c-7.254,1.338-13.553,5.422-17.736,11.497
				c-8.636,12.542-5.457,29.772,7.085,38.407c4.772,3.286,10.223,4.861,15.62,4.861c8.789,0,17.438-4.177,22.788-11.947
				C258.528,217.566,255.349,200.336,242.807,191.701z M236.975,221.214c-3.731,5.418-11.176,6.792-16.594,3.062
				c-5.419-3.731-6.793-11.176-3.062-16.594c0.001-0.001,0.001-0.001,0.001-0.001c1.806-2.625,4.528-4.389,7.662-4.967
				c0.73-0.134,1.463-0.201,2.19-0.201c2.393,0,4.728,0.721,6.741,2.107C239.332,208.351,240.706,215.795,236.975,221.214z"/>
		</g>
	</g>
</g>
</svg>